<svg xmlns="http://www.w3.org/2000/svg" xmlns:xlink="http://www.w3.org/1999/xlink" width="1080" zoomAndPan="magnify" viewBox="0 0 810 809.999993" height="1080" preserveAspectRatio="xMidYMid meet" version="1.0"><defs><g/><clipPath id="1c4b3f36c9"><rect x="0" width="650" y="0" height="244"/></clipPath><clipPath id="56db067723"><rect x="0" width="652" y="0" height="142"/></clipPath></defs><rect x="-81" width="972" fill="#ffffff" y="-80.999999" height="971.999992" fill-opacity="1"/><rect x="-81" width="972" fill="#ffa31a" y="-80.999999" height="971.999992" fill-opacity="1"/><g transform="matrix(1, 0, 0, 1, 80, 237)"><g clip-path="url(#1c4b3f36c9)"><g fill="#292929" fill-opacity="1"><g transform="translate(0.999999, 174.110779)"><g><path d="M 49.8125 -168.890625 C 81.164062 -168.890625 96.84375 -157.070312 96.84375 -133.4375 L 96.84375 -117 L 58.609375 -117 L 58.609375 -131.359375 C 58.609375 -138.773438 55.828125 -142.484375 50.265625 -142.484375 C 45.484375 -142.484375 43.09375 -139.082031 43.09375 -132.28125 L 43.09375 -123.9375 C 43.09375 -120.851562 44.171875 -117.957031 46.328125 -115.25 C 48.492188 -112.550781 50.8125 -110.351562 53.28125 -108.65625 C 55.75 -106.957031 59.6875 -104.484375 65.09375 -101.234375 C 71.738281 -97.222656 77.414062 -93.285156 82.125 -89.421875 C 86.832031 -85.566406 90.925781 -80.585938 94.40625 -74.484375 C 97.882812 -68.378906 99.625 -61.160156 99.625 -52.828125 L 99.625 -38 C 99.625 -22.394531 95.179688 -11.582031 86.296875 -5.5625 C 77.421875 0.457031 65.257812 3.46875 49.8125 3.46875 C 32.820312 3.46875 20.847656 0.0703125 13.890625 -6.71875 C 6.941406 -13.507812 3.46875 -24.007812 3.46875 -38.21875 L 3.46875 -60.234375 L 43.328125 -60.234375 L 43.328125 -32.890625 C 43.328125 -26.253906 45.71875 -22.9375 50.5 -22.9375 C 53.125 -22.9375 55.09375 -23.976562 56.40625 -26.0625 C 57.71875 -28.144531 58.375 -31.660156 58.375 -36.609375 L 58.375 -45.40625 C 58.375 -49.570312 57.253906 -53.273438 55.015625 -56.515625 C 52.773438 -59.765625 50.300781 -62.394531 47.59375 -64.40625 C 44.894531 -66.414062 41.078125 -68.960938 36.140625 -72.046875 C 29.492188 -76.066406 23.96875 -79.851562 19.5625 -83.40625 C 15.164062 -86.957031 11.347656 -91.585938 8.109375 -97.296875 C 4.867188 -103.015625 3.25 -109.8125 3.25 -117.6875 L 3.25 -128.8125 C 3.25 -155.53125 18.769531 -168.890625 49.8125 -168.890625 Z M 49.8125 -168.890625 "/></g></g></g><g fill="#292929" fill-opacity="1"><g transform="translate(103.861785, 174.110779)"><g><path d="M 106.109375 0 L 63.484375 0 L 61.390625 -29.1875 L 45.875 -29.1875 L 43.78125 0 L 1.15625 0 L 22.015625 -165.40625 L 83.40625 -165.40625 Z M 45.875 -58.375 L 60.703125 -58.375 L 53.28125 -136.21875 L 52.828125 -136.21875 Z M 45.875 -58.375 "/></g></g></g><g fill="#292929" fill-opacity="1"><g transform="translate(211.125376, 174.110779)"><g><path d="M 65.5625 -83.171875 L 66.03125 -83.171875 L 66.03125 -165.40625 L 102.171875 -165.40625 L 102.171875 0 L 66.03125 0 L 41.9375 -92.4375 L 41.234375 -92.4375 L 41.234375 0 L 5.09375 0 L 5.09375 -165.40625 L 41.234375 -165.40625 Z M 65.5625 -83.171875 "/></g></g></g><g fill="#292929" fill-opacity="1"><g transform="translate(318.388967, 174.110779)"><g><path d="M 106.5625 -124.171875 L 106.5625 -31.046875 C 106.5625 -20.847656 103.164062 -13.125 96.375 -7.875 C 89.582031 -2.625 80.703125 0 69.734375 0 L 5.09375 0 L 5.09375 -165.40625 L 60.46875 -165.40625 C 70.65625 -165.40625 79.070312 -164.285156 85.71875 -162.046875 C 92.363281 -159.804688 97.5 -155.675781 101.125 -149.65625 C 104.75 -143.632812 106.5625 -135.140625 106.5625 -124.171875 Z M 63.9375 -40.078125 L 63.9375 -125.328125 C 63.9375 -128.421875 63.046875 -131.238281 61.265625 -133.78125 C 59.492188 -136.332031 57.21875 -137.609375 54.4375 -137.609375 L 47.71875 -137.609375 L 47.71875 -27.796875 L 54.4375 -27.796875 C 57.21875 -27.796875 59.492188 -29.03125 61.265625 -31.5 C 63.046875 -33.976562 63.9375 -36.835938 63.9375 -40.078125 Z M 63.9375 -40.078125 "/></g></g></g><g fill="#292929" fill-opacity="1"><g transform="translate(430.054278, 174.110779)"><g><path d="M 47.71875 -38.21875 C 47.71875 -33.125 48.488281 -29.765625 50.03125 -28.140625 C 51.582031 -26.523438 53.515625 -25.71875 55.828125 -25.71875 C 58.148438 -25.71875 60.082031 -26.523438 61.625 -28.140625 C 63.164062 -29.765625 63.9375 -33.125 63.9375 -38.21875 L 63.9375 -165.40625 L 106.5625 -165.40625 L 106.5625 -44.25 C 106.5625 -12.4375 89.648438 3.46875 55.828125 3.46875 C 22.003906 3.46875 5.09375 -12.4375 5.09375 -44.25 L 5.09375 -165.40625 L 47.71875 -165.40625 Z M 47.71875 -38.21875 "/></g></g></g><g fill="#292929" fill-opacity="1"><g transform="translate(541.719588, 174.110779)"><g><path d="M 100.546875 -132.75 L 100.546875 -116.0625 C 100.546875 -106.957031 98.457031 -100.125 94.28125 -95.5625 C 90.113281 -91.007812 83.863281 -88.421875 75.53125 -87.796875 L 75.53125 -87.34375 C 84.632812 -86.71875 91.347656 -84.085938 95.671875 -79.453125 C 100.003906 -74.828125 102.171875 -67.957031 102.171875 -58.84375 L 102.171875 0 L 62.3125 0 L 62.3125 -63.484375 C 62.3125 -72.585938 58.609375 -77.140625 51.203125 -77.140625 C 49.503906 -77.140625 47.878906 -76.910156 46.328125 -76.453125 L 46.328125 0 L 5.09375 0 L 5.09375 -165.40625 L 54.90625 -165.40625 C 64.789062 -165.40625 72.898438 -164.671875 79.234375 -163.203125 C 85.566406 -161.742188 90.703125 -158.65625 94.640625 -153.9375 C 98.578125 -149.226562 100.546875 -142.164062 100.546875 -132.75 Z M 49.34375 -102.171875 C 54.289062 -102.171875 57.6875 -103.289062 59.53125 -105.53125 C 61.382812 -107.769531 62.3125 -110.351562 62.3125 -113.28125 L 62.3125 -127.890625 C 62.3125 -130.660156 61.382812 -133.203125 59.53125 -135.515625 C 57.6875 -137.835938 54.367188 -139 49.578125 -139 L 46.328125 -139 L 46.328125 -102.171875 Z M 49.34375 -102.171875 "/></g></g></g></g></g><g transform="matrix(1, 0, 0, 1, 80, 429)"><g clip-path="url(#56db067723)"><g fill="#292929" fill-opacity="1"><g transform="translate(0.999999, 101.594756)"><g><path d="M 57.921875 -74.40625 L 57.921875 -61.40625 C 57.921875 -53.8125 56.175781 -48.179688 52.6875 -44.515625 C 49.207031 -40.847656 44.335938 -39.015625 38.078125 -39.015625 L 26.8125 -39.015625 L 26.8125 0 L 2.953125 0 L 2.953125 -95.734375 L 35.796875 -95.734375 C 42.859375 -95.734375 48.3125 -93.878906 52.15625 -90.171875 C 56 -86.460938 57.921875 -81.207031 57.921875 -74.40625 Z M 37 -60.609375 L 37 -74.140625 C 37 -77.804688 35.125 -79.640625 31.375 -79.640625 L 26.8125 -79.640625 L 26.8125 -55.109375 L 31.375 -55.109375 C 35.125 -55.109375 37 -56.941406 37 -60.609375 Z M 37 -60.609375 "/></g></g></g><g fill="#292929" fill-opacity="1"><g transform="translate(60.530554, 101.594756)"><g><path d="M 58.1875 -76.828125 L 58.1875 -67.171875 C 58.1875 -61.898438 56.976562 -57.945312 54.5625 -55.3125 C 52.15625 -52.675781 48.535156 -51.175781 43.703125 -50.8125 L 43.703125 -50.546875 C 48.984375 -50.191406 52.875 -48.671875 55.375 -45.984375 C 57.875 -43.304688 59.125 -39.332031 59.125 -34.0625 L 59.125 0 L 36.0625 0 L 36.0625 -36.734375 C 36.0625 -42.003906 33.914062 -44.640625 29.625 -44.640625 C 28.644531 -44.640625 27.707031 -44.507812 26.8125 -44.25 L 26.8125 0 L 2.953125 0 L 2.953125 -95.734375 L 31.78125 -95.734375 C 37.5 -95.734375 42.191406 -95.304688 45.859375 -94.453125 C 49.523438 -93.609375 52.492188 -91.820312 54.765625 -89.09375 C 57.046875 -86.363281 58.1875 -82.273438 58.1875 -76.828125 Z M 28.5625 -59.125 C 31.414062 -59.125 33.378906 -59.769531 34.453125 -61.0625 C 35.523438 -62.363281 36.0625 -63.863281 36.0625 -65.5625 L 36.0625 -74.015625 C 36.0625 -75.617188 35.523438 -77.09375 34.453125 -78.4375 C 33.378906 -79.78125 31.457031 -80.453125 28.6875 -80.453125 L 26.8125 -80.453125 L 26.8125 -59.125 Z M 28.5625 -59.125 "/></g></g></g><g fill="#292929" fill-opacity="1"><g transform="translate(122.608624, 101.594756)"><g><path d="M 32.3125 -97.75 C 41.875 -97.75 49.15625 -95.46875 54.15625 -90.90625 C 59.164062 -86.34375 61.671875 -78.96875 61.671875 -68.78125 L 61.671875 -26.953125 C 61.671875 -16.847656 59.191406 -9.492188 54.234375 -4.890625 C 49.273438 -0.285156 41.96875 2.015625 32.3125 2.015625 C 22.65625 2.015625 15.347656 -0.238281 10.390625 -4.75 C 5.429688 -9.269531 2.953125 -16.671875 2.953125 -26.953125 L 2.953125 -68.78125 C 2.953125 -78.882812 5.429688 -86.238281 10.390625 -90.84375 C 15.347656 -95.445312 22.65625 -97.75 32.3125 -97.75 Z M 27.625 -75.75 L 27.625 -19.984375 C 27.625 -18.097656 28.023438 -16.640625 28.828125 -15.609375 C 29.628906 -14.585938 30.789062 -14.078125 32.3125 -14.078125 C 33.832031 -14.078125 34.992188 -14.585938 35.796875 -15.609375 C 36.597656 -16.640625 37 -18.097656 37 -19.984375 L 37 -75.75 C 37 -77.625 36.597656 -79.078125 35.796875 -80.109375 C 34.992188 -81.140625 33.832031 -81.65625 32.3125 -81.65625 C 29.1875 -81.65625 27.625 -79.6875 27.625 -75.75 Z M 27.625 -75.75 "/></g></g></g><g fill="#292929" fill-opacity="1"><g transform="translate(187.234159, 101.594756)"><g><path d="M 61.671875 -71.859375 L 61.671875 -17.96875 C 61.671875 -12.070312 59.703125 -7.601562 55.765625 -4.5625 C 51.835938 -1.519531 46.703125 0 40.359375 0 L 2.953125 0 L 2.953125 -95.734375 L 35 -95.734375 C 40.894531 -95.734375 45.765625 -95.082031 49.609375 -93.78125 C 53.453125 -92.488281 56.421875 -90.097656 58.515625 -86.609375 C 60.617188 -83.128906 61.671875 -78.210938 61.671875 -71.859375 Z M 37 -23.203125 L 37 -72.53125 C 37 -74.320312 36.484375 -75.953125 35.453125 -77.421875 C 34.429688 -78.898438 33.117188 -79.640625 31.515625 -79.640625 L 27.625 -79.640625 L 27.625 -16.09375 L 31.515625 -16.09375 C 33.117188 -16.09375 34.429688 -16.804688 35.453125 -18.234375 C 36.484375 -19.660156 37 -21.316406 37 -23.203125 Z M 37 -23.203125 "/></g></g></g><g fill="#292929" fill-opacity="1"><g transform="translate(251.859694, 101.594756)"><g><path d="M 27.625 -22.125 C 27.625 -19.175781 28.066406 -17.226562 28.953125 -16.28125 C 29.847656 -15.34375 30.96875 -14.875 32.3125 -14.875 C 33.65625 -14.875 34.769531 -15.34375 35.65625 -16.28125 C 36.550781 -17.226562 37 -19.175781 37 -22.125 L 37 -95.734375 L 61.671875 -95.734375 L 61.671875 -25.609375 C 61.671875 -7.191406 51.882812 2.015625 32.3125 2.015625 C 12.738281 2.015625 2.953125 -7.191406 2.953125 -25.609375 L 2.953125 -95.734375 L 27.625 -95.734375 Z M 27.625 -22.125 "/></g></g></g><g fill="#292929" fill-opacity="1"><g transform="translate(316.485228, 101.594756)"><g><path d="M 32.84375 -97.75 C 42.144531 -97.75 49.070312 -95.289062 53.625 -90.375 C 58.1875 -85.457031 60.46875 -79.109375 60.46875 -71.328125 L 60.46875 -57.25 L 35.796875 -57.25 L 35.796875 -76.015625 C 35.796875 -77.898438 35.484375 -79.3125 34.859375 -80.25 C 34.234375 -81.1875 33.070312 -81.65625 31.375 -81.65625 C 29.945312 -81.65625 28.960938 -81.03125 28.421875 -79.78125 C 27.890625 -78.53125 27.625 -77.1875 27.625 -75.75 L 27.625 -19.984375 C 27.625 -18.546875 27.890625 -17.203125 28.421875 -15.953125 C 28.960938 -14.703125 29.945312 -14.078125 31.375 -14.078125 C 33.070312 -14.078125 34.234375 -14.613281 34.859375 -15.6875 C 35.484375 -16.757812 35.796875 -18.410156 35.796875 -20.640625 L 35.796875 -41.296875 L 60.46875 -41.296875 L 60.46875 -24.9375 C 60.46875 -20.019531 59.4375 -15.503906 57.375 -11.390625 C 55.320312 -7.285156 52.171875 -4.023438 47.921875 -1.609375 C 43.679688 0.804688 38.476562 2.015625 32.3125 2.015625 C 22.75 2.015625 15.460938 -0.265625 10.453125 -4.828125 C 5.453125 -9.390625 2.953125 -16.765625 2.953125 -26.953125 L 2.953125 -68.78125 C 2.953125 -78.257812 5.5 -85.457031 10.59375 -90.375 C 15.6875 -95.289062 23.101562 -97.75 32.84375 -97.75 Z M 32.84375 -97.75 "/></g></g></g><g fill="#292929" fill-opacity="1"><g transform="translate(378.563298, 101.594756)"><g><path d="M 54.171875 -76.421875 L 39.546875 -76.421875 L 39.546875 0 L 14.875 0 L 14.875 -76.421875 L 0.265625 -76.421875 L 0.265625 -95.734375 L 54.171875 -95.734375 Z M 54.171875 -76.421875 "/></g></g></g><g fill="#292929" fill-opacity="1"><g transform="translate(432.998927, 101.594756)"><g><path d="M 27.21875 0 L 2.546875 0 L 2.546875 -95.734375 L 27.21875 -95.734375 Z M 27.21875 0 "/></g></g></g><g fill="#292929" fill-opacity="1"><g transform="translate(462.764205, 101.594756)"><g><path d="M 32.3125 -97.75 C 41.875 -97.75 49.15625 -95.46875 54.15625 -90.90625 C 59.164062 -86.34375 61.671875 -78.96875 61.671875 -68.78125 L 61.671875 -26.953125 C 61.671875 -16.847656 59.191406 -9.492188 54.234375 -4.890625 C 49.273438 -0.285156 41.96875 2.015625 32.3125 2.015625 C 22.65625 2.015625 15.347656 -0.238281 10.390625 -4.75 C 5.429688 -9.269531 2.953125 -16.671875 2.953125 -26.953125 L 2.953125 -68.78125 C 2.953125 -78.882812 5.429688 -86.238281 10.390625 -90.84375 C 15.347656 -95.445312 22.65625 -97.75 32.3125 -97.75 Z M 27.625 -75.75 L 27.625 -19.984375 C 27.625 -18.097656 28.023438 -16.640625 28.828125 -15.609375 C 29.628906 -14.585938 30.789062 -14.078125 32.3125 -14.078125 C 33.832031 -14.078125 34.992188 -14.585938 35.796875 -15.609375 C 36.597656 -16.640625 37 -18.097656 37 -19.984375 L 37 -75.75 C 37 -77.625 36.597656 -79.078125 35.796875 -80.109375 C 34.992188 -81.140625 33.832031 -81.65625 32.3125 -81.65625 C 29.1875 -81.65625 27.625 -79.6875 27.625 -75.75 Z M 27.625 -75.75 "/></g></g></g><g fill="#292929" fill-opacity="1"><g transform="translate(527.389739, 101.594756)"><g><path d="M 37.9375 -48.140625 L 38.21875 -48.140625 L 38.21875 -95.734375 L 59.125 -95.734375 L 59.125 0 L 38.21875 0 L 24.265625 -53.5 L 23.859375 -53.5 L 23.859375 0 L 2.953125 0 L 2.953125 -95.734375 L 23.859375 -95.734375 Z M 37.9375 -48.140625 "/></g></g></g><g fill="#292929" fill-opacity="1"><g transform="translate(589.467809, 101.594756)"><g><path d="M 28.828125 -97.75 C 46.972656 -97.75 56.046875 -90.910156 56.046875 -77.234375 L 56.046875 -67.703125 L 33.921875 -67.703125 L 33.921875 -76.015625 C 33.921875 -80.304688 32.3125 -82.453125 29.09375 -82.453125 C 26.320312 -82.453125 24.9375 -80.488281 24.9375 -76.5625 L 24.9375 -71.734375 C 24.9375 -69.941406 25.5625 -68.265625 26.8125 -66.703125 C 28.0625 -65.140625 29.398438 -63.863281 30.828125 -62.875 C 32.265625 -61.894531 34.546875 -60.46875 37.671875 -58.59375 C 41.515625 -56.269531 44.800781 -53.988281 47.53125 -51.75 C 50.257812 -49.519531 52.628906 -46.640625 54.640625 -43.109375 C 56.648438 -39.578125 57.65625 -35.394531 57.65625 -30.5625 L 57.65625 -21.984375 C 57.65625 -12.960938 55.082031 -6.707031 49.9375 -3.21875 C 44.800781 0.269531 37.765625 2.015625 28.828125 2.015625 C 18.992188 2.015625 12.066406 0.0507812 8.046875 -3.875 C 4.023438 -7.8125 2.015625 -13.894531 2.015625 -22.125 L 2.015625 -34.859375 L 25.078125 -34.859375 L 25.078125 -19.046875 C 25.078125 -15.203125 26.460938 -13.28125 29.234375 -13.28125 C 30.753906 -13.28125 31.890625 -13.878906 32.640625 -15.078125 C 33.398438 -16.285156 33.78125 -18.320312 33.78125 -21.1875 L 33.78125 -26.28125 C 33.78125 -28.695312 33.132812 -30.84375 31.84375 -32.71875 C 30.550781 -34.59375 29.117188 -36.109375 27.546875 -37.265625 C 25.984375 -38.429688 23.773438 -39.910156 20.921875 -41.703125 C 17.078125 -44.023438 13.878906 -46.210938 11.328125 -48.265625 C 8.785156 -50.328125 6.570312 -53.007812 4.6875 -56.3125 C 2.8125 -59.625 1.875 -63.554688 1.875 -68.109375 L 1.875 -74.546875 C 1.875 -90.015625 10.859375 -97.75 28.828125 -97.75 Z M 28.828125 -97.75 "/></g></g></g></g></g></svg>