<svg xmlns="http://www.w3.org/2000/svg" xmlns:xlink="http://www.w3.org/1999/xlink" width="2560" zoomAndPan="magnify" viewBox="0 0 1920 1079.999946" height="1440" preserveAspectRatio="xMidYMid meet" version="1.0"><defs><g/></defs><rect x="-192" width="2304" fill="#ffffff" y="-107.999995" height="1295.999935" fill-opacity="1"/><rect x="-192" width="2304" fill="#ffa31a" y="-107.999995" height="1295.999935" fill-opacity="1"/><g fill="#292929" fill-opacity="1"><g transform="translate(566.507804, 548.699906)"><g><path d="M 21.5 -72.90625 C 35.03125 -72.90625 41.796875 -67.800781 41.796875 -57.59375 L 41.796875 -50.5 L 25.296875 -50.5 L 25.296875 -56.703125 C 25.296875 -59.898438 24.097656 -61.5 21.703125 -61.5 C 19.628906 -61.5 18.59375 -60.03125 18.59375 -57.09375 L 18.59375 -53.5 C 18.59375 -52.164062 19.0625 -50.914062 20 -49.75 C 20.9375 -48.582031 21.9375 -47.628906 23 -46.890625 C 24.0625 -46.160156 25.757812 -45.097656 28.09375 -43.703125 C 30.96875 -41.960938 33.421875 -40.257812 35.453125 -38.59375 C 37.484375 -36.925781 39.25 -34.773438 40.75 -32.140625 C 42.25 -29.515625 43 -26.398438 43 -22.796875 L 43 -16.40625 C 43 -9.664062 41.082031 -4.992188 37.25 -2.390625 C 33.414062 0.203125 28.164062 1.5 21.5 1.5 C 14.164062 1.5 9 0.0351562 6 -2.890625 C 3 -5.828125 1.5 -10.363281 1.5 -16.5 L 1.5 -26 L 18.703125 -26 L 18.703125 -14.203125 C 18.703125 -11.335938 19.734375 -9.90625 21.796875 -9.90625 C 22.929688 -9.90625 23.78125 -10.351562 24.34375 -11.25 C 24.914062 -12.144531 25.203125 -13.660156 25.203125 -15.796875 L 25.203125 -19.59375 C 25.203125 -21.394531 24.71875 -22.992188 23.75 -24.390625 C 22.78125 -25.796875 21.710938 -26.929688 20.546875 -27.796875 C 19.378906 -28.660156 17.726562 -29.757812 15.59375 -31.09375 C 12.726562 -32.832031 10.34375 -34.46875 8.4375 -36 C 6.539062 -37.53125 4.894531 -39.53125 3.5 -42 C 2.101562 -44.46875 1.40625 -47.398438 1.40625 -50.796875 L 1.40625 -55.59375 C 1.40625 -67.132812 8.101562 -72.90625 21.5 -72.90625 Z M 21.5 -72.90625 "/></g></g></g><g fill="#292929" fill-opacity="1"><g transform="translate(610.906092, 548.699906)"><g><path d="M 45.796875 0 L 27.40625 0 L 26.5 -12.59375 L 19.796875 -12.59375 L 18.90625 0 L 0.5 0 L 9.5 -71.40625 L 36 -71.40625 Z M 19.796875 -25.203125 L 26.203125 -25.203125 L 23 -58.796875 L 22.796875 -58.796875 Z M 19.796875 -25.203125 "/></g></g></g><g fill="#292929" fill-opacity="1"><g transform="translate(657.204306, 548.699906)"><g><path d="M 28.296875 -35.90625 L 28.5 -35.90625 L 28.5 -71.40625 L 44.09375 -71.40625 L 44.09375 0 L 28.5 0 L 18.09375 -39.90625 L 17.796875 -39.90625 L 17.796875 0 L 2.203125 0 L 2.203125 -71.40625 L 17.796875 -71.40625 Z M 28.296875 -35.90625 "/></g></g></g><g fill="#292929" fill-opacity="1"><g transform="translate(703.502519, 548.699906)"><g><path d="M 46 -53.59375 L 46 -13.40625 C 46 -9 44.53125 -5.660156 41.59375 -3.390625 C 38.664062 -1.128906 34.832031 0 30.09375 0 L 2.203125 0 L 2.203125 -71.40625 L 26.09375 -71.40625 C 30.5 -71.40625 34.132812 -70.921875 37 -69.953125 C 39.863281 -68.984375 42.078125 -67.195312 43.640625 -64.59375 C 45.210938 -62 46 -58.332031 46 -53.59375 Z M 27.59375 -17.296875 L 27.59375 -54.09375 C 27.59375 -55.425781 27.207031 -56.644531 26.4375 -57.75 C 25.675781 -58.851562 24.695312 -59.40625 23.5 -59.40625 L 20.59375 -59.40625 L 20.59375 -12 L 23.5 -12 C 24.695312 -12 25.675781 -12.53125 26.4375 -13.59375 C 27.207031 -14.664062 27.59375 -15.898438 27.59375 -17.296875 Z M 27.59375 -17.296875 "/></g></g></g><g fill="#292929" fill-opacity="1"><g transform="translate(751.700658, 548.699906)"><g><path d="M 20.59375 -16.5 C 20.59375 -14.300781 20.925781 -12.847656 21.59375 -12.140625 C 22.257812 -11.441406 23.09375 -11.09375 24.09375 -11.09375 C 25.09375 -11.09375 25.925781 -11.441406 26.59375 -12.140625 C 27.257812 -12.847656 27.59375 -14.300781 27.59375 -16.5 L 27.59375 -71.40625 L 46 -71.40625 L 46 -19.09375 C 46 -5.363281 38.695312 1.5 24.09375 1.5 C 9.5 1.5 2.203125 -5.363281 2.203125 -19.09375 L 2.203125 -71.40625 L 20.59375 -71.40625 Z M 20.59375 -16.5 "/></g></g></g><g fill="#292929" fill-opacity="1"><g transform="translate(799.898797, 548.699906)"><g><path d="M 43.40625 -57.296875 L 43.40625 -50.09375 C 43.40625 -46.164062 42.503906 -43.21875 40.703125 -41.25 C 38.898438 -39.28125 36.195312 -38.164062 32.59375 -37.90625 L 32.59375 -37.703125 C 36.53125 -37.429688 39.429688 -36.296875 41.296875 -34.296875 C 43.160156 -32.296875 44.09375 -29.332031 44.09375 -25.40625 L 44.09375 0 L 26.90625 0 L 26.90625 -27.40625 C 26.90625 -31.332031 25.300781 -33.296875 22.09375 -33.296875 C 21.363281 -33.296875 20.664062 -33.195312 20 -33 L 20 0 L 2.203125 0 L 2.203125 -71.40625 L 23.703125 -71.40625 C 27.960938 -71.40625 31.457031 -71.085938 34.1875 -70.453125 C 36.925781 -69.816406 39.144531 -68.484375 40.84375 -66.453125 C 42.550781 -64.421875 43.40625 -61.367188 43.40625 -57.296875 Z M 21.296875 -44.09375 C 23.429688 -44.09375 24.898438 -44.578125 25.703125 -45.546875 C 26.503906 -46.515625 26.90625 -47.632812 26.90625 -48.90625 L 26.90625 -55.203125 C 26.90625 -56.398438 26.503906 -57.5 25.703125 -58.5 C 24.898438 -59.5 23.46875 -60 21.40625 -60 L 20 -60 L 20 -44.09375 Z M 21.296875 -44.09375 "/></g></g></g><g fill="#292929" fill-opacity="1"><g transform="translate(846.19701, 548.699906)"><g/></g></g><g fill="#292929" fill-opacity="1"><g transform="translate(870.19607, 548.699906)"><g><path d="M 43.203125 -55.5 L 43.203125 -45.796875 C 43.203125 -40.128906 41.898438 -35.925781 39.296875 -33.1875 C 36.703125 -30.457031 33.070312 -29.09375 28.40625 -29.09375 L 20 -29.09375 L 20 0 L 2.203125 0 L 2.203125 -71.40625 L 26.703125 -71.40625 C 31.960938 -71.40625 36.023438 -70.019531 38.890625 -67.25 C 41.765625 -64.476562 43.203125 -60.5625 43.203125 -55.5 Z M 27.59375 -45.203125 L 27.59375 -55.296875 C 27.59375 -58.035156 26.195312 -59.40625 23.40625 -59.40625 L 20 -59.40625 L 20 -41.09375 L 23.40625 -41.09375 C 26.195312 -41.09375 27.59375 -42.460938 27.59375 -45.203125 Z M 27.59375 -45.203125 "/></g></g></g><g fill="#292929" fill-opacity="1"><g transform="translate(914.594381, 548.699906)"><g><path d="M 43.40625 -57.296875 L 43.40625 -50.09375 C 43.40625 -46.164062 42.503906 -43.21875 40.703125 -41.25 C 38.898438 -39.28125 36.195312 -38.164062 32.59375 -37.90625 L 32.59375 -37.703125 C 36.53125 -37.429688 39.429688 -36.296875 41.296875 -34.296875 C 43.160156 -32.296875 44.09375 -29.332031 44.09375 -25.40625 L 44.09375 0 L 26.90625 0 L 26.90625 -27.40625 C 26.90625 -31.332031 25.300781 -33.296875 22.09375 -33.296875 C 21.363281 -33.296875 20.664062 -33.195312 20 -33 L 20 0 L 2.203125 0 L 2.203125 -71.40625 L 23.703125 -71.40625 C 27.960938 -71.40625 31.457031 -71.085938 34.1875 -70.453125 C 36.925781 -69.816406 39.144531 -68.484375 40.84375 -66.453125 C 42.550781 -64.421875 43.40625 -61.367188 43.40625 -57.296875 Z M 21.296875 -44.09375 C 23.429688 -44.09375 24.898438 -44.578125 25.703125 -45.546875 C 26.503906 -46.515625 26.90625 -47.632812 26.90625 -48.90625 L 26.90625 -55.203125 C 26.90625 -56.398438 26.503906 -57.5 25.703125 -58.5 C 24.898438 -59.5 23.46875 -60 21.40625 -60 L 20 -60 L 20 -44.09375 Z M 21.296875 -44.09375 "/></g></g></g><g fill="#292929" fill-opacity="1"><g transform="translate(960.892595, 548.699906)"><g><path d="M 24.09375 -72.90625 C 31.226562 -72.90625 36.660156 -71.203125 40.390625 -67.796875 C 44.128906 -64.398438 46 -58.898438 46 -51.296875 L 46 -20.09375 C 46 -12.5625 44.148438 -7.078125 40.453125 -3.640625 C 36.753906 -0.210938 31.300781 1.5 24.09375 1.5 C 16.894531 1.5 11.445312 -0.179688 7.75 -3.546875 C 4.050781 -6.910156 2.203125 -12.425781 2.203125 -20.09375 L 2.203125 -51.296875 C 2.203125 -58.828125 4.050781 -64.3125 7.75 -67.75 C 11.445312 -71.1875 16.894531 -72.90625 24.09375 -72.90625 Z M 20.59375 -56.5 L 20.59375 -14.90625 C 20.59375 -13.5 20.894531 -12.410156 21.5 -11.640625 C 22.101562 -10.878906 22.96875 -10.5 24.09375 -10.5 C 25.226562 -10.5 26.09375 -10.878906 26.6875 -11.640625 C 27.289062 -12.410156 27.59375 -13.5 27.59375 -14.90625 L 27.59375 -56.5 C 27.59375 -57.894531 27.289062 -58.976562 26.6875 -59.75 C 26.09375 -60.519531 25.226562 -60.90625 24.09375 -60.90625 C 21.757812 -60.90625 20.59375 -59.4375 20.59375 -56.5 Z M 20.59375 -56.5 "/></g></g></g><g fill="#292929" fill-opacity="1"><g transform="translate(1009.090711, 548.699906)"><g><path d="M 46 -53.59375 L 46 -13.40625 C 46 -9 44.53125 -5.660156 41.59375 -3.390625 C 38.664062 -1.128906 34.832031 0 30.09375 0 L 2.203125 0 L 2.203125 -71.40625 L 26.09375 -71.40625 C 30.5 -71.40625 34.132812 -70.921875 37 -69.953125 C 39.863281 -68.984375 42.078125 -67.195312 43.640625 -64.59375 C 45.210938 -62 46 -58.332031 46 -53.59375 Z M 27.59375 -17.296875 L 27.59375 -54.09375 C 27.59375 -55.425781 27.207031 -56.644531 26.4375 -57.75 C 25.675781 -58.851562 24.695312 -59.40625 23.5 -59.40625 L 20.59375 -59.40625 L 20.59375 -12 L 23.5 -12 C 24.695312 -12 25.675781 -12.53125 26.4375 -13.59375 C 27.207031 -14.664062 27.59375 -15.898438 27.59375 -17.296875 Z M 27.59375 -17.296875 "/></g></g></g><g fill="#292929" fill-opacity="1"><g transform="translate(1057.288872, 548.699906)"><g><path d="M 20.59375 -16.5 C 20.59375 -14.300781 20.925781 -12.847656 21.59375 -12.140625 C 22.257812 -11.441406 23.09375 -11.09375 24.09375 -11.09375 C 25.09375 -11.09375 25.925781 -11.441406 26.59375 -12.140625 C 27.257812 -12.847656 27.59375 -14.300781 27.59375 -16.5 L 27.59375 -71.40625 L 46 -71.40625 L 46 -19.09375 C 46 -5.363281 38.695312 1.5 24.09375 1.5 C 9.5 1.5 2.203125 -5.363281 2.203125 -19.09375 L 2.203125 -71.40625 L 20.59375 -71.40625 Z M 20.59375 -16.5 "/></g></g></g><g fill="#292929" fill-opacity="1"><g transform="translate(1105.486987, 548.699906)"><g><path d="M 24.5 -72.90625 C 31.4375 -72.90625 36.601562 -71.070312 40 -67.40625 C 43.394531 -63.738281 45.09375 -59.003906 45.09375 -53.203125 L 45.09375 -42.703125 L 26.703125 -42.703125 L 26.703125 -56.703125 C 26.703125 -58.097656 26.46875 -59.144531 26 -59.84375 C 25.53125 -60.550781 24.664062 -60.90625 23.40625 -60.90625 C 22.332031 -60.90625 21.59375 -60.4375 21.1875 -59.5 C 20.789062 -58.5625 20.59375 -57.5625 20.59375 -56.5 L 20.59375 -14.90625 C 20.59375 -13.832031 20.789062 -12.828125 21.1875 -11.890625 C 21.59375 -10.960938 22.332031 -10.5 23.40625 -10.5 C 24.664062 -10.5 25.53125 -10.898438 26 -11.703125 C 26.46875 -12.503906 26.703125 -13.738281 26.703125 -15.40625 L 26.703125 -30.796875 L 45.09375 -30.796875 L 45.09375 -18.59375 C 45.09375 -14.925781 44.328125 -11.5625 42.796875 -8.5 C 41.265625 -5.4375 38.914062 -3.003906 35.75 -1.203125 C 32.582031 0.597656 28.695312 1.5 24.09375 1.5 C 16.96875 1.5 11.535156 -0.195312 7.796875 -3.59375 C 4.066406 -7 2.203125 -12.5 2.203125 -20.09375 L 2.203125 -51.296875 C 2.203125 -58.367188 4.097656 -63.738281 7.890625 -67.40625 C 11.691406 -71.070312 17.226562 -72.90625 24.5 -72.90625 Z M 24.5 -72.90625 "/></g></g></g><g fill="#292929" fill-opacity="1"><g transform="translate(1151.785201, 548.699906)"><g><path d="M 40.40625 -57 L 29.5 -57 L 29.5 0 L 11.09375 0 L 11.09375 -57 L 0.203125 -57 L 0.203125 -71.40625 L 40.40625 -71.40625 Z M 40.40625 -57 "/></g></g></g><g fill="#292929" fill-opacity="1"><g transform="translate(1192.383662, 548.699906)"><g><path d="M 20.296875 0 L 1.90625 0 L 1.90625 -71.40625 L 20.296875 -71.40625 Z M 20.296875 0 "/></g></g></g><g fill="#292929" fill-opacity="1"><g transform="translate(1214.582818, 548.699906)"><g><path d="M 24.09375 -72.90625 C 31.226562 -72.90625 36.660156 -71.203125 40.390625 -67.796875 C 44.128906 -64.398438 46 -58.898438 46 -51.296875 L 46 -20.09375 C 46 -12.5625 44.148438 -7.078125 40.453125 -3.640625 C 36.753906 -0.210938 31.300781 1.5 24.09375 1.5 C 16.894531 1.5 11.445312 -0.179688 7.75 -3.546875 C 4.050781 -6.910156 2.203125 -12.425781 2.203125 -20.09375 L 2.203125 -51.296875 C 2.203125 -58.828125 4.050781 -64.3125 7.75 -67.75 C 11.445312 -71.1875 16.894531 -72.90625 24.09375 -72.90625 Z M 20.59375 -56.5 L 20.59375 -14.90625 C 20.59375 -13.5 20.894531 -12.410156 21.5 -11.640625 C 22.101562 -10.878906 22.96875 -10.5 24.09375 -10.5 C 25.226562 -10.5 26.09375 -10.878906 26.6875 -11.640625 C 27.289062 -12.410156 27.59375 -13.5 27.59375 -14.90625 L 27.59375 -56.5 C 27.59375 -57.894531 27.289062 -58.976562 26.6875 -59.75 C 26.09375 -60.519531 25.226562 -60.90625 24.09375 -60.90625 C 21.757812 -60.90625 20.59375 -59.4375 20.59375 -56.5 Z M 20.59375 -56.5 "/></g></g></g><g fill="#292929" fill-opacity="1"><g transform="translate(1262.780934, 548.699906)"><g><path d="M 28.296875 -35.90625 L 28.5 -35.90625 L 28.5 -71.40625 L 44.09375 -71.40625 L 44.09375 0 L 28.5 0 L 18.09375 -39.90625 L 17.796875 -39.90625 L 17.796875 0 L 2.203125 0 L 2.203125 -71.40625 L 17.796875 -71.40625 Z M 28.296875 -35.90625 "/></g></g></g><g fill="#292929" fill-opacity="1"><g transform="translate(1309.079147, 548.699906)"><g><path d="M 21.5 -72.90625 C 35.03125 -72.90625 41.796875 -67.800781 41.796875 -57.59375 L 41.796875 -50.5 L 25.296875 -50.5 L 25.296875 -56.703125 C 25.296875 -59.898438 24.097656 -61.5 21.703125 -61.5 C 19.628906 -61.5 18.59375 -60.03125 18.59375 -57.09375 L 18.59375 -53.5 C 18.59375 -52.164062 19.0625 -50.914062 20 -49.75 C 20.9375 -48.582031 21.9375 -47.628906 23 -46.890625 C 24.0625 -46.160156 25.757812 -45.097656 28.09375 -43.703125 C 30.96875 -41.960938 33.421875 -40.257812 35.453125 -38.59375 C 37.484375 -36.925781 39.25 -34.773438 40.75 -32.140625 C 42.25 -29.515625 43 -26.398438 43 -22.796875 L 43 -16.40625 C 43 -9.664062 41.082031 -4.992188 37.25 -2.390625 C 33.414062 0.203125 28.164062 1.5 21.5 1.5 C 14.164062 1.5 9 0.0351562 6 -2.890625 C 3 -5.828125 1.5 -10.363281 1.5 -16.5 L 1.5 -26 L 18.703125 -26 L 18.703125 -14.203125 C 18.703125 -11.335938 19.734375 -9.90625 21.796875 -9.90625 C 22.929688 -9.90625 23.78125 -10.351562 24.34375 -11.25 C 24.914062 -12.144531 25.203125 -13.660156 25.203125 -15.796875 L 25.203125 -19.59375 C 25.203125 -21.394531 24.71875 -22.992188 23.75 -24.390625 C 22.78125 -25.796875 21.710938 -26.929688 20.546875 -27.796875 C 19.378906 -28.660156 17.726562 -29.757812 15.59375 -31.09375 C 12.726562 -32.832031 10.34375 -34.46875 8.4375 -36 C 6.539062 -37.53125 4.894531 -39.53125 3.5 -42 C 2.101562 -44.46875 1.40625 -47.398438 1.40625 -50.796875 L 1.40625 -55.59375 C 1.40625 -67.132812 8.101562 -72.90625 21.5 -72.90625 Z M 21.5 -72.90625 "/></g></g></g><g fill="#292929" fill-opacity="1"><g transform="translate(624.608028, 600.949917)"><g><path d="M 0 -11.578125 L 39 -11.578125 L 39 -9.59375 L 0 -9.59375 Z M 0 -11.578125 "/></g></g></g><g fill="#292929" fill-opacity="1"><g transform="translate(663.608059, 600.949917)"><g/></g></g><g fill="#292929" fill-opacity="1"><g transform="translate(673.826065, 600.949917)"><g><path d="M 11.03125 -20.671875 C 13.707031 -20.671875 15.757812 -20 17.1875 -18.65625 C 18.625 -17.320312 19.34375 -15.34375 19.34375 -12.71875 L 19.34375 0 L 16.6875 0 L 16.6875 -3.203125 C 16.0625 -2.128906 15.144531 -1.296875 13.9375 -0.703125 C 12.726562 -0.109375 11.296875 0.1875 9.640625 0.1875 C 7.347656 0.1875 5.523438 -0.351562 4.171875 -1.4375 C 2.816406 -2.53125 2.140625 -3.972656 2.140625 -5.765625 C 2.140625 -7.515625 2.769531 -8.921875 4.03125 -9.984375 C 5.289062 -11.046875 7.300781 -11.578125 10.0625 -11.578125 L 16.578125 -11.578125 L 16.578125 -12.828125 C 16.578125 -14.597656 16.082031 -15.941406 15.09375 -16.859375 C 14.101562 -17.785156 12.660156 -18.25 10.765625 -18.25 C 9.460938 -18.25 8.210938 -18.035156 7.015625 -17.609375 C 5.816406 -17.179688 4.789062 -16.585938 3.9375 -15.828125 L 2.6875 -17.90625 C 3.726562 -18.789062 4.976562 -19.472656 6.4375 -19.953125 C 7.894531 -20.429688 9.425781 -20.671875 11.03125 -20.671875 Z M 10.0625 -1.984375 C 11.625 -1.984375 12.960938 -2.34375 14.078125 -3.0625 C 15.191406 -3.78125 16.023438 -4.8125 16.578125 -6.15625 L 16.578125 -9.515625 L 10.140625 -9.515625 C 6.628906 -9.515625 4.875 -8.289062 4.875 -5.84375 C 4.875 -4.65625 5.328125 -3.710938 6.234375 -3.015625 C 7.148438 -2.328125 8.425781 -1.984375 10.0625 -1.984375 Z M 10.0625 -1.984375 "/></g></g></g><g fill="#292929" fill-opacity="1"><g transform="translate(696.83608, 600.949917)"><g><path d="M 14.3125 -20.671875 C 16.882812 -20.671875 18.929688 -19.921875 20.453125 -18.421875 C 21.972656 -16.929688 22.734375 -14.753906 22.734375 -11.890625 L 22.734375 0 L 19.96875 0 L 19.96875 -11.625 C 19.96875 -13.75 19.429688 -15.367188 18.359375 -16.484375 C 17.296875 -17.609375 15.78125 -18.171875 13.8125 -18.171875 C 11.59375 -18.171875 9.835938 -17.515625 8.546875 -16.203125 C 7.265625 -14.890625 6.625 -13.078125 6.625 -10.765625 L 6.625 0 L 3.859375 0 L 3.859375 -20.515625 L 6.515625 -20.515625 L 6.515625 -16.734375 C 7.265625 -17.984375 8.304688 -18.953125 9.640625 -19.640625 C 10.984375 -20.328125 12.539062 -20.671875 14.3125 -20.671875 Z M 14.3125 -20.671875 "/></g></g></g><g fill="#292929" fill-opacity="1"><g transform="translate(723.239096, 600.949917)"><g/></g></g><g fill="#292929" fill-opacity="1"><g transform="translate(733.463487, 600.949917)"><g><path d="M 11.265625 -21.296875 C 14.515625 -21.296875 17.007812 -20.519531 18.75 -18.96875 C 20.5 -17.425781 21.375 -15.09375 21.375 -11.96875 L 21.375 0 L 15.671875 0 L 15.671875 -2.609375 C 14.535156 -0.660156 12.40625 0.3125 9.28125 0.3125 C 7.664062 0.3125 6.265625 0.0390625 5.078125 -0.5 C 3.898438 -1.050781 3 -1.804688 2.375 -2.765625 C 1.75 -3.734375 1.4375 -4.828125 1.4375 -6.046875 C 1.4375 -7.992188 2.171875 -9.523438 3.640625 -10.640625 C 5.109375 -11.765625 7.378906 -12.328125 10.453125 -12.328125 L 15.28125 -12.328125 C 15.28125 -13.648438 14.878906 -14.664062 14.078125 -15.375 C 13.273438 -16.09375 12.066406 -16.453125 10.453125 -16.453125 C 9.335938 -16.453125 8.238281 -16.273438 7.15625 -15.921875 C 6.070312 -15.578125 5.15625 -15.109375 4.40625 -14.515625 L 2.21875 -18.765625 C 3.363281 -19.566406 4.734375 -20.1875 6.328125 -20.625 C 7.929688 -21.070312 9.578125 -21.296875 11.265625 -21.296875 Z M 10.796875 -3.78125 C 11.835938 -3.78125 12.757812 -4.019531 13.5625 -4.5 C 14.375 -4.976562 14.945312 -5.6875 15.28125 -6.625 L 15.28125 -8.78125 L 11.109375 -8.78125 C 8.617188 -8.78125 7.375 -7.957031 7.375 -6.3125 C 7.375 -5.53125 7.675781 -4.910156 8.28125 -4.453125 C 8.894531 -4.003906 9.734375 -3.78125 10.796875 -3.78125 Z M 10.796875 -3.78125 "/></g></g></g><g fill="#292929" fill-opacity="1"><g transform="translate(757.526508, 600.949917)"><g><path d="M 29.671875 -21.296875 C 32.304688 -21.296875 34.394531 -20.519531 35.9375 -18.96875 C 37.488281 -17.425781 38.265625 -15.109375 38.265625 -12.015625 L 38.265625 0 L 32.171875 0 L 32.171875 -11.078125 C 32.171875 -12.742188 31.828125 -13.984375 31.140625 -14.796875 C 30.453125 -15.617188 29.472656 -16.03125 28.203125 -16.03125 C 26.765625 -16.03125 25.628906 -15.566406 24.796875 -14.640625 C 23.972656 -13.722656 23.5625 -12.351562 23.5625 -10.53125 L 23.5625 0 L 17.46875 0 L 17.46875 -11.078125 C 17.46875 -14.378906 16.144531 -16.03125 13.5 -16.03125 C 12.09375 -16.03125 10.972656 -15.566406 10.140625 -14.640625 C 9.304688 -13.722656 8.890625 -12.351562 8.890625 -10.53125 L 8.890625 0 L 2.8125 0 L 2.8125 -20.984375 L 8.625 -20.984375 L 8.625 -18.5625 C 9.394531 -19.445312 10.347656 -20.125 11.484375 -20.59375 C 12.617188 -21.0625 13.859375 -21.296875 15.203125 -21.296875 C 16.691406 -21.296875 18.03125 -21 19.21875 -20.40625 C 20.414062 -19.820312 21.378906 -18.972656 22.109375 -17.859375 C 22.972656 -18.953125 24.0625 -19.796875 25.375 -20.390625 C 26.6875 -20.992188 28.117188 -21.296875 29.671875 -21.296875 Z M 29.671875 -21.296875 "/></g></g></g><g fill="#292929" fill-opacity="1"><g transform="translate(798.671538, 600.949917)"><g><path d="M 12.796875 0.3125 C 10.585938 0.3125 8.601562 -0.144531 6.84375 -1.0625 C 5.09375 -1.988281 3.722656 -3.269531 2.734375 -4.90625 C 1.742188 -6.550781 1.25 -8.410156 1.25 -10.484375 C 1.25 -12.566406 1.742188 -14.425781 2.734375 -16.0625 C 3.722656 -17.707031 5.09375 -18.988281 6.84375 -19.90625 C 8.601562 -20.832031 10.585938 -21.296875 12.796875 -21.296875 C 15.003906 -21.296875 16.976562 -20.832031 18.71875 -19.90625 C 20.457031 -18.988281 21.820312 -17.707031 22.8125 -16.0625 C 23.800781 -14.425781 24.296875 -12.566406 24.296875 -10.484375 C 24.296875 -8.410156 23.800781 -6.550781 22.8125 -4.90625 C 21.820312 -3.269531 20.457031 -1.988281 18.71875 -1.0625 C 16.976562 -0.144531 15.003906 0.3125 12.796875 0.3125 Z M 12.796875 -4.6875 C 14.347656 -4.6875 15.625 -5.210938 16.625 -6.265625 C 17.632812 -7.316406 18.140625 -8.722656 18.140625 -10.484375 C 18.140625 -12.253906 17.632812 -13.664062 16.625 -14.71875 C 15.625 -15.769531 14.347656 -16.296875 12.796875 -16.296875 C 11.234375 -16.296875 9.941406 -15.769531 8.921875 -14.71875 C 7.910156 -13.664062 7.40625 -12.253906 7.40625 -10.484375 C 7.40625 -8.722656 7.910156 -7.316406 8.921875 -6.265625 C 9.941406 -5.210938 11.234375 -4.6875 12.796875 -4.6875 Z M 12.796875 -4.6875 "/></g></g></g><g fill="#292929" fill-opacity="1"><g transform="translate(824.216557, 600.949917)"><g><path d="M 24.453125 -20.984375 L 24.453125 -3.515625 C 24.453125 0.335938 23.453125 3.195312 21.453125 5.0625 C 19.453125 6.9375 16.523438 7.875 12.671875 7.875 C 10.648438 7.875 8.726562 7.625 6.90625 7.125 C 5.082031 6.632812 3.570312 5.921875 2.375 4.984375 L 4.796875 0.625 C 5.679688 1.351562 6.796875 1.929688 8.140625 2.359375 C 9.492188 2.785156 10.847656 3 12.203125 3 C 14.304688 3 15.859375 2.523438 16.859375 1.578125 C 17.867188 0.628906 18.375 -0.804688 18.375 -2.734375 L 18.375 -3.625 C 16.78125 -1.882812 14.566406 -1.015625 11.734375 -1.015625 C 9.816406 -1.015625 8.054688 -1.4375 6.453125 -2.28125 C 4.859375 -3.125 3.59375 -4.3125 2.65625 -5.84375 C 1.71875 -7.382812 1.25 -9.15625 1.25 -11.15625 C 1.25 -13.15625 1.71875 -14.921875 2.65625 -16.453125 C 3.59375 -17.992188 4.859375 -19.1875 6.453125 -20.03125 C 8.054688 -20.875 9.816406 -21.296875 11.734375 -21.296875 C 14.773438 -21.296875 17.09375 -20.296875 18.6875 -18.296875 L 18.6875 -20.984375 Z M 12.953125 -6 C 14.554688 -6 15.875 -6.472656 16.90625 -7.421875 C 17.9375 -8.378906 18.453125 -9.625 18.453125 -11.15625 C 18.453125 -12.6875 17.9375 -13.925781 16.90625 -14.875 C 15.875 -15.820312 14.554688 -16.296875 12.953125 -16.296875 C 11.335938 -16.296875 10.007812 -15.820312 8.96875 -14.875 C 7.925781 -13.925781 7.40625 -12.6875 7.40625 -11.15625 C 7.40625 -9.625 7.925781 -8.378906 8.96875 -7.421875 C 10.007812 -6.472656 11.335938 -6 12.953125 -6 Z M 12.953125 -6 "/></g></g></g><g fill="#292929" fill-opacity="1"><g transform="translate(851.516584, 600.949917)"><g><path d="M 15.5625 -21.296875 C 18.164062 -21.296875 20.265625 -20.515625 21.859375 -18.953125 C 23.460938 -17.390625 24.265625 -15.078125 24.265625 -12.015625 L 24.265625 0 L 18.171875 0 L 18.171875 -11.078125 C 18.171875 -12.742188 17.804688 -13.984375 17.078125 -14.796875 C 16.347656 -15.617188 15.296875 -16.03125 13.921875 -16.03125 C 12.390625 -16.03125 11.164062 -15.554688 10.25 -14.609375 C 9.34375 -13.660156 8.890625 -12.25 8.890625 -10.375 L 8.890625 0 L 2.8125 0 L 2.8125 -28.9375 L 8.890625 -28.9375 L 8.890625 -18.796875 C 9.691406 -19.597656 10.664062 -20.210938 11.8125 -20.640625 C 12.957031 -21.078125 14.207031 -21.296875 15.5625 -21.296875 Z M 15.5625 -21.296875 "/></g></g></g><g fill="#292929" fill-opacity="1"><g transform="translate(878.46561, 600.949917)"><g><path d="M 11.265625 -21.296875 C 14.515625 -21.296875 17.007812 -20.519531 18.75 -18.96875 C 20.5 -17.425781 21.375 -15.09375 21.375 -11.96875 L 21.375 0 L 15.671875 0 L 15.671875 -2.609375 C 14.535156 -0.660156 12.40625 0.3125 9.28125 0.3125 C 7.664062 0.3125 6.265625 0.0390625 5.078125 -0.5 C 3.898438 -1.050781 3 -1.804688 2.375 -2.765625 C 1.75 -3.734375 1.4375 -4.828125 1.4375 -6.046875 C 1.4375 -7.992188 2.171875 -9.523438 3.640625 -10.640625 C 5.109375 -11.765625 7.378906 -12.328125 10.453125 -12.328125 L 15.28125 -12.328125 C 15.28125 -13.648438 14.878906 -14.664062 14.078125 -15.375 C 13.273438 -16.09375 12.066406 -16.453125 10.453125 -16.453125 C 9.335938 -16.453125 8.238281 -16.273438 7.15625 -15.921875 C 6.070312 -15.578125 5.15625 -15.109375 4.40625 -14.515625 L 2.21875 -18.765625 C 3.363281 -19.566406 4.734375 -20.1875 6.328125 -20.625 C 7.929688 -21.070312 9.578125 -21.296875 11.265625 -21.296875 Z M 10.796875 -3.78125 C 11.835938 -3.78125 12.757812 -4.019531 13.5625 -4.5 C 14.375 -4.976562 14.945312 -5.6875 15.28125 -6.625 L 15.28125 -8.78125 L 11.109375 -8.78125 C 8.617188 -8.78125 7.375 -7.957031 7.375 -6.3125 C 7.375 -5.53125 7.675781 -4.910156 8.28125 -4.453125 C 8.894531 -4.003906 9.734375 -3.78125 10.796875 -3.78125 Z M 10.796875 -3.78125 "/></g></g></g><g fill="#292929" fill-opacity="1"><g transform="translate(902.52863, 600.949917)"><g><path d="M 8.625 -18.21875 C 9.351562 -19.226562 10.332031 -19.992188 11.5625 -20.515625 C 12.800781 -21.035156 14.222656 -21.296875 15.828125 -21.296875 L 15.828125 -15.671875 C 15.148438 -15.722656 14.695312 -15.75 14.46875 -15.75 C 12.726562 -15.75 11.363281 -15.257812 10.375 -14.28125 C 9.382812 -13.3125 8.890625 -11.851562 8.890625 -9.90625 L 8.890625 0 L 2.8125 0 L 2.8125 -20.984375 L 8.625 -20.984375 Z M 8.625 -18.21875 "/></g></g></g><g fill="#292929" fill-opacity="1"><g transform="translate(919.064643, 600.949917)"><g><path d="M 11.265625 -21.296875 C 14.515625 -21.296875 17.007812 -20.519531 18.75 -18.96875 C 20.5 -17.425781 21.375 -15.09375 21.375 -11.96875 L 21.375 0 L 15.671875 0 L 15.671875 -2.609375 C 14.535156 -0.660156 12.40625 0.3125 9.28125 0.3125 C 7.664062 0.3125 6.265625 0.0390625 5.078125 -0.5 C 3.898438 -1.050781 3 -1.804688 2.375 -2.765625 C 1.75 -3.734375 1.4375 -4.828125 1.4375 -6.046875 C 1.4375 -7.992188 2.171875 -9.523438 3.640625 -10.640625 C 5.109375 -11.765625 7.378906 -12.328125 10.453125 -12.328125 L 15.28125 -12.328125 C 15.28125 -13.648438 14.878906 -14.664062 14.078125 -15.375 C 13.273438 -16.09375 12.066406 -16.453125 10.453125 -16.453125 C 9.335938 -16.453125 8.238281 -16.273438 7.15625 -15.921875 C 6.070312 -15.578125 5.15625 -15.109375 4.40625 -14.515625 L 2.21875 -18.765625 C 3.363281 -19.566406 4.734375 -20.1875 6.328125 -20.625 C 7.929688 -21.070312 9.578125 -21.296875 11.265625 -21.296875 Z M 10.796875 -3.78125 C 11.835938 -3.78125 12.757812 -4.019531 13.5625 -4.5 C 14.375 -4.976562 14.945312 -5.6875 15.28125 -6.625 L 15.28125 -8.78125 L 11.109375 -8.78125 C 8.617188 -8.78125 7.375 -7.957031 7.375 -6.3125 C 7.375 -5.53125 7.675781 -4.910156 8.28125 -4.453125 C 8.894531 -4.003906 9.734375 -3.78125 10.796875 -3.78125 Z M 10.796875 -3.78125 "/></g></g></g><g fill="#292929" fill-opacity="1"><g transform="translate(943.127652, 600.949917)"><g><path d="M 1.25 7.875 C -0.882812 7.875 -2.507812 7.484375 -3.625 6.703125 L -1.984375 2.296875 C -1.285156 2.796875 -0.429688 3.046875 0.578125 3.046875 C 1.359375 3.046875 1.96875 2.789062 2.40625 2.28125 C 2.851562 1.769531 3.078125 1.007812 3.078125 0 L 3.078125 -20.984375 L 9.171875 -20.984375 L 9.171875 -0.03125 C 9.171875 2.40625 8.472656 4.332031 7.078125 5.75 C 5.679688 7.164062 3.738281 7.875 1.25 7.875 Z M 6.125 -23.90625 C 5.007812 -23.90625 4.097656 -24.226562 3.390625 -24.875 C 2.691406 -25.53125 2.34375 -26.335938 2.34375 -27.296875 C 2.34375 -28.265625 2.691406 -29.070312 3.390625 -29.71875 C 4.097656 -30.363281 5.007812 -30.6875 6.125 -30.6875 C 7.25 -30.6875 8.160156 -30.375 8.859375 -29.75 C 9.554688 -29.132812 9.90625 -28.359375 9.90625 -27.421875 C 9.90625 -26.398438 9.554688 -25.554688 8.859375 -24.890625 C 8.160156 -24.234375 7.25 -23.90625 6.125 -23.90625 Z M 6.125 -23.90625 "/></g></g></g><g fill="#292929" fill-opacity="1"><g transform="translate(955.100688, 600.949917)"><g><path d="M 9.859375 0.3125 C 8.117188 0.3125 6.414062 0.0976562 4.75 -0.328125 C 3.09375 -0.753906 1.769531 -1.296875 0.78125 -1.953125 L 2.8125 -6.3125 C 3.75 -5.71875 4.878906 -5.234375 6.203125 -4.859375 C 7.523438 -4.484375 8.820312 -4.296875 10.09375 -4.296875 C 12.675781 -4.296875 13.96875 -4.929688 13.96875 -6.203125 C 13.96875 -6.796875 13.613281 -7.222656 12.90625 -7.484375 C 12.207031 -7.742188 11.128906 -7.96875 9.671875 -8.15625 C 7.953125 -8.414062 6.535156 -8.710938 5.421875 -9.046875 C 4.304688 -9.390625 3.335938 -9.988281 2.515625 -10.84375 C 1.691406 -11.695312 1.28125 -12.921875 1.28125 -14.515625 C 1.28125 -15.835938 1.664062 -17.007812 2.4375 -18.03125 C 3.207031 -19.0625 4.328125 -19.863281 5.796875 -20.4375 C 7.265625 -21.007812 9 -21.296875 11 -21.296875 C 12.476562 -21.296875 13.953125 -21.128906 15.421875 -20.796875 C 16.890625 -20.472656 18.109375 -20.03125 19.078125 -19.46875 L 17.046875 -15.125 C 15.203125 -16.164062 13.1875 -16.6875 11 -16.6875 C 9.695312 -16.6875 8.71875 -16.503906 8.0625 -16.140625 C 7.414062 -15.773438 7.09375 -15.304688 7.09375 -14.734375 C 7.09375 -14.085938 7.441406 -13.632812 8.140625 -13.375 C 8.847656 -13.113281 9.96875 -12.867188 11.5 -12.640625 C 13.21875 -12.347656 14.625 -12.039062 15.71875 -11.71875 C 16.8125 -11.394531 17.757812 -10.800781 18.5625 -9.9375 C 19.363281 -9.082031 19.765625 -7.890625 19.765625 -6.359375 C 19.765625 -5.054688 19.375 -3.894531 18.59375 -2.875 C 17.820312 -1.863281 16.6875 -1.078125 15.1875 -0.515625 C 13.695312 0.0351562 11.921875 0.3125 9.859375 0.3125 Z M 9.859375 0.3125 "/></g></g></g><g fill="#292929" fill-opacity="1"><g transform="translate(975.809687, 600.949917)"><g><path d="M 11.265625 -21.296875 C 14.515625 -21.296875 17.007812 -20.519531 18.75 -18.96875 C 20.5 -17.425781 21.375 -15.09375 21.375 -11.96875 L 21.375 0 L 15.671875 0 L 15.671875 -2.609375 C 14.535156 -0.660156 12.40625 0.3125 9.28125 0.3125 C 7.664062 0.3125 6.265625 0.0390625 5.078125 -0.5 C 3.898438 -1.050781 3 -1.804688 2.375 -2.765625 C 1.75 -3.734375 1.4375 -4.828125 1.4375 -6.046875 C 1.4375 -7.992188 2.171875 -9.523438 3.640625 -10.640625 C 5.109375 -11.765625 7.378906 -12.328125 10.453125 -12.328125 L 15.28125 -12.328125 C 15.28125 -13.648438 14.878906 -14.664062 14.078125 -15.375 C 13.273438 -16.09375 12.066406 -16.453125 10.453125 -16.453125 C 9.335938 -16.453125 8.238281 -16.273438 7.15625 -15.921875 C 6.070312 -15.578125 5.15625 -15.109375 4.40625 -14.515625 L 2.21875 -18.765625 C 3.363281 -19.566406 4.734375 -20.1875 6.328125 -20.625 C 7.929688 -21.070312 9.578125 -21.296875 11.265625 -21.296875 Z M 10.796875 -3.78125 C 11.835938 -3.78125 12.757812 -4.019531 13.5625 -4.5 C 14.375 -4.976562 14.945312 -5.6875 15.28125 -6.625 L 15.28125 -8.78125 L 11.109375 -8.78125 C 8.617188 -8.78125 7.375 -7.957031 7.375 -6.3125 C 7.375 -5.53125 7.675781 -4.910156 8.28125 -4.453125 C 8.894531 -4.003906 9.734375 -3.78125 10.796875 -3.78125 Z M 10.796875 -3.78125 "/></g></g></g><g fill="#292929" fill-opacity="1"><g transform="translate(999.872718, 600.949917)"><g><path d="M 15.5625 -21.296875 C 18.164062 -21.296875 20.265625 -20.515625 21.859375 -18.953125 C 23.460938 -17.390625 24.265625 -15.078125 24.265625 -12.015625 L 24.265625 0 L 18.171875 0 L 18.171875 -11.078125 C 18.171875 -12.742188 17.804688 -13.984375 17.078125 -14.796875 C 16.347656 -15.617188 15.296875 -16.03125 13.921875 -16.03125 C 12.390625 -16.03125 11.164062 -15.554688 10.25 -14.609375 C 9.34375 -13.660156 8.890625 -12.25 8.890625 -10.375 L 8.890625 0 L 2.8125 0 L 2.8125 -20.984375 L 8.625 -20.984375 L 8.625 -18.53125 C 9.425781 -19.40625 10.425781 -20.082031 11.625 -20.5625 C 12.820312 -21.050781 14.132812 -21.296875 15.5625 -21.296875 Z M 15.5625 -21.296875 "/></g></g></g><g fill="#292929" fill-opacity="1"><g transform="translate(1027.05573, 600.949917)"><g><path d="M 24.1875 -28.9375 L 24.1875 0 L 18.375 0 L 18.375 -2.421875 C 16.863281 -0.597656 14.675781 0.3125 11.8125 0.3125 C 9.84375 0.3125 8.054688 -0.128906 6.453125 -1.015625 C 4.859375 -1.898438 3.601562 -3.160156 2.6875 -4.796875 C 1.78125 -6.429688 1.328125 -8.328125 1.328125 -10.484375 C 1.328125 -12.648438 1.78125 -14.550781 2.6875 -16.1875 C 3.601562 -17.820312 4.859375 -19.082031 6.453125 -19.96875 C 8.054688 -20.851562 9.84375 -21.296875 11.8125 -21.296875 C 14.488281 -21.296875 16.582031 -20.453125 18.09375 -18.765625 L 18.09375 -28.9375 Z M 12.875 -4.6875 C 14.40625 -4.6875 15.675781 -5.210938 16.6875 -6.265625 C 17.707031 -7.316406 18.21875 -8.722656 18.21875 -10.484375 C 18.21875 -12.253906 17.707031 -13.664062 16.6875 -14.71875 C 15.675781 -15.769531 14.40625 -16.296875 12.875 -16.296875 C 11.3125 -16.296875 10.019531 -15.769531 9 -14.71875 C 7.988281 -13.664062 7.484375 -12.253906 7.484375 -10.484375 C 7.484375 -8.722656 7.988281 -7.316406 9 -6.265625 C 10.019531 -5.210938 11.3125 -4.6875 12.875 -4.6875 Z M 12.875 -4.6875 "/></g></g></g><g fill="#292929" fill-opacity="1"><g transform="translate(1054.04378, 600.949917)"><g><path d="M 23.953125 -20.984375 L 23.953125 0 L 18.171875 0 L 18.171875 -2.5 C 17.367188 -1.582031 16.40625 -0.882812 15.28125 -0.40625 C 14.164062 0.0703125 12.957031 0.3125 11.65625 0.3125 C 8.90625 0.3125 6.722656 -0.476562 5.109375 -2.0625 C 3.492188 -3.65625 2.6875 -6.007812 2.6875 -9.125 L 2.6875 -20.984375 L 8.78125 -20.984375 L 8.78125 -10.015625 C 8.78125 -6.640625 10.195312 -4.953125 13.03125 -4.953125 C 14.476562 -4.953125 15.644531 -5.425781 16.53125 -6.375 C 17.414062 -7.320312 17.859375 -8.734375 17.859375 -10.609375 L 17.859375 -20.984375 Z M 23.953125 -20.984375 "/></g></g><g transform="translate(1080.836777, 600.949917)"><g><path d="M 8.625 -18.21875 C 9.351562 -19.226562 10.332031 -19.992188 11.5625 -20.515625 C 12.800781 -21.035156 14.222656 -21.296875 15.828125 -21.296875 L 15.828125 -15.671875 C 15.148438 -15.722656 14.695312 -15.75 14.46875 -15.75 C 12.726562 -15.75 11.363281 -15.257812 10.375 -14.28125 C 9.382812 -13.3125 8.890625 -11.851562 8.890625 -9.90625 L 8.890625 0 L 2.8125 0 L 2.8125 -20.984375 L 8.625 -20.984375 Z M 8.625 -18.21875 "/></g></g></g><g fill="#292929" fill-opacity="1"><g transform="translate(1097.647051, 600.949917)"><g/></g></g><g fill="#292929" fill-opacity="1"><g transform="translate(1107.865057, 600.949917)"><g><path d="M 14.4375 -20.671875 C 16.351562 -20.671875 18.09375 -20.234375 19.65625 -19.359375 C 21.21875 -18.492188 22.4375 -17.265625 23.3125 -15.671875 C 24.195312 -14.085938 24.640625 -12.28125 24.640625 -10.25 C 24.640625 -8.195312 24.195312 -6.378906 23.3125 -4.796875 C 22.4375 -3.210938 21.222656 -1.984375 19.671875 -1.109375 C 18.128906 -0.242188 16.382812 0.1875 14.4375 0.1875 C 12.769531 0.1875 11.265625 -0.15625 9.921875 -0.84375 C 8.585938 -1.53125 7.488281 -2.535156 6.625 -3.859375 L 6.625 7.5625 L 3.859375 7.5625 L 3.859375 -20.515625 L 6.515625 -20.515625 L 6.515625 -16.453125 C 7.347656 -17.804688 8.445312 -18.847656 9.8125 -19.578125 C 11.175781 -20.304688 12.71875 -20.671875 14.4375 -20.671875 Z M 14.234375 -2.265625 C 15.660156 -2.265625 16.957031 -2.59375 18.125 -3.25 C 19.300781 -3.914062 20.21875 -4.859375 20.875 -6.078125 C 21.539062 -7.304688 21.875 -8.695312 21.875 -10.25 C 21.875 -11.8125 21.539062 -13.195312 20.875 -14.40625 C 20.21875 -15.613281 19.300781 -16.554688 18.125 -17.234375 C 16.957031 -17.910156 15.660156 -18.25 14.234375 -18.25 C 12.773438 -18.25 11.46875 -17.910156 10.3125 -17.234375 C 9.15625 -16.554688 8.242188 -15.613281 7.578125 -14.40625 C 6.921875 -13.195312 6.59375 -11.8125 6.59375 -10.25 C 6.59375 -8.695312 6.921875 -7.304688 7.578125 -6.078125 C 8.242188 -4.859375 9.15625 -3.914062 10.3125 -3.25 C 11.46875 -2.59375 12.773438 -2.265625 14.234375 -2.265625 Z M 14.234375 -2.265625 "/></g></g></g><g fill="#292929" fill-opacity="1"><g transform="translate(1134.307074, 600.949917)"><g><path d="M 6.515625 -16.5 C 7.160156 -17.875 8.125 -18.910156 9.40625 -19.609375 C 10.695312 -20.316406 12.296875 -20.671875 14.203125 -20.671875 L 14.203125 -17.984375 L 13.53125 -18.015625 C 11.375 -18.015625 9.679688 -17.351562 8.453125 -16.03125 C 7.234375 -14.707031 6.625 -12.847656 6.625 -10.453125 L 6.625 0 L 3.859375 0 L 3.859375 -20.515625 L 6.515625 -20.515625 Z M 6.515625 -16.5 "/></g></g></g><g fill="#292929" fill-opacity="1"><g transform="translate(1149.439092, 600.949917)"><g><path d="M 12.25 0.1875 C 10.269531 0.1875 8.488281 -0.257812 6.90625 -1.15625 C 5.320312 -2.050781 4.070312 -3.289062 3.15625 -4.875 C 2.25 -6.457031 1.796875 -8.25 1.796875 -10.25 C 1.796875 -12.257812 2.25 -14.054688 3.15625 -15.640625 C 4.070312 -17.222656 5.320312 -18.457031 6.90625 -19.34375 C 8.488281 -20.226562 10.269531 -20.671875 12.25 -20.671875 C 14.21875 -20.671875 15.992188 -20.226562 17.578125 -19.34375 C 19.171875 -18.457031 20.414062 -17.222656 21.3125 -15.640625 C 22.207031 -14.054688 22.65625 -12.257812 22.65625 -10.25 C 22.65625 -8.25 22.207031 -6.457031 21.3125 -4.875 C 20.414062 -3.289062 19.171875 -2.050781 17.578125 -1.15625 C 15.992188 -0.257812 14.21875 0.1875 12.25 0.1875 Z M 12.25 -2.265625 C 13.707031 -2.265625 15.015625 -2.59375 16.171875 -3.25 C 17.328125 -3.914062 18.226562 -4.859375 18.875 -6.078125 C 19.519531 -7.304688 19.84375 -8.695312 19.84375 -10.25 C 19.84375 -11.8125 19.519531 -13.203125 18.875 -14.421875 C 18.226562 -15.648438 17.328125 -16.59375 16.171875 -17.25 C 15.015625 -17.914062 13.707031 -18.25 12.25 -18.25 C 10.789062 -18.25 9.484375 -17.914062 8.328125 -17.25 C 7.171875 -16.59375 6.257812 -15.648438 5.59375 -14.421875 C 4.9375 -13.203125 4.609375 -11.8125 4.609375 -10.25 C 4.609375 -8.695312 4.9375 -7.304688 5.59375 -6.078125 C 6.257812 -4.859375 7.171875 -3.914062 8.328125 -3.25 C 9.484375 -2.59375 10.789062 -2.265625 12.25 -2.265625 Z M 12.25 -2.265625 "/></g></g></g><g fill="#292929" fill-opacity="1"><g transform="translate(1173.892115, 600.949917)"><g><path d="M 0.8125 7.765625 C -0.0390625 7.765625 -0.847656 7.648438 -1.609375 7.421875 C -2.378906 7.203125 -3.015625 6.875 -3.515625 6.4375 L -2.53125 4.328125 C -1.726562 5.023438 -0.664062 5.375 0.65625 5.375 C 1.75 5.375 2.585938 5.050781 3.171875 4.40625 C 3.765625 3.757812 4.0625 2.796875 4.0625 1.515625 L 4.0625 -20.515625 L 6.828125 -20.515625 L 6.828125 1.515625 C 6.828125 3.441406 6.304688 4.960938 5.265625 6.078125 C 4.222656 7.203125 2.738281 7.765625 0.8125 7.765625 Z M 5.453125 -25.03125 C 4.878906 -25.03125 4.394531 -25.222656 4 -25.609375 C 3.613281 -26.003906 3.421875 -26.472656 3.421875 -27.015625 C 3.421875 -27.535156 3.613281 -27.988281 4 -28.375 C 4.394531 -28.769531 4.878906 -28.96875 5.453125 -28.96875 C 6.023438 -28.96875 6.503906 -28.78125 6.890625 -28.40625 C 7.285156 -28.03125 7.484375 -27.582031 7.484375 -27.0625 C 7.484375 -26.488281 7.285156 -26.003906 6.890625 -25.609375 C 6.503906 -25.222656 6.023438 -25.03125 5.453125 -25.03125 Z M 5.453125 -25.03125 "/></g></g></g><g fill="#292929" fill-opacity="1"><g transform="translate(1184.578126, 600.949917)"><g><path d="M 21.71875 -9.40625 L 4.5625 -9.40625 C 4.71875 -7.269531 5.535156 -5.546875 7.015625 -4.234375 C 8.503906 -2.921875 10.378906 -2.265625 12.640625 -2.265625 C 13.910156 -2.265625 15.078125 -2.488281 16.140625 -2.9375 C 17.210938 -3.394531 18.140625 -4.066406 18.921875 -4.953125 L 20.46875 -3.15625 C 19.5625 -2.0625 18.425781 -1.226562 17.0625 -0.65625 C 15.695312 -0.09375 14.195312 0.1875 12.5625 0.1875 C 10.457031 0.1875 8.59375 -0.257812 6.96875 -1.15625 C 5.34375 -2.050781 4.070312 -3.289062 3.15625 -4.875 C 2.25 -6.457031 1.796875 -8.25 1.796875 -10.25 C 1.796875 -12.257812 2.226562 -14.054688 3.09375 -15.640625 C 3.96875 -17.222656 5.164062 -18.457031 6.6875 -19.34375 C 8.207031 -20.226562 9.914062 -20.671875 11.8125 -20.671875 C 13.707031 -20.671875 15.410156 -20.226562 16.921875 -19.34375 C 18.429688 -18.457031 19.613281 -17.226562 20.46875 -15.65625 C 21.332031 -14.082031 21.765625 -12.28125 21.765625 -10.25 Z M 11.8125 -18.296875 C 9.84375 -18.296875 8.1875 -17.664062 6.84375 -16.40625 C 5.507812 -15.144531 4.75 -13.5 4.5625 -11.46875 L 19.109375 -11.46875 C 18.929688 -13.5 18.171875 -15.144531 16.828125 -16.40625 C 15.484375 -17.664062 13.8125 -18.296875 11.8125 -18.296875 Z M 11.8125 -18.296875 "/></g></g></g><g fill="#292929" fill-opacity="1"><g transform="translate(1208.13415, 600.949917)"><g><path d="M 12.359375 0.1875 C 10.335938 0.1875 8.523438 -0.25 6.921875 -1.125 C 5.328125 -2.007812 4.070312 -3.25 3.15625 -4.84375 C 2.25 -6.445312 1.796875 -8.25 1.796875 -10.25 C 1.796875 -12.257812 2.25 -14.054688 3.15625 -15.640625 C 4.070312 -17.222656 5.328125 -18.457031 6.921875 -19.34375 C 8.523438 -20.226562 10.335938 -20.671875 12.359375 -20.671875 C 14.128906 -20.671875 15.707031 -20.328125 17.09375 -19.640625 C 18.488281 -18.953125 19.585938 -17.941406 20.390625 -16.609375 L 18.328125 -15.203125 C 17.648438 -16.222656 16.789062 -16.984375 15.75 -17.484375 C 14.71875 -17.992188 13.585938 -18.25 12.359375 -18.25 C 10.878906 -18.25 9.546875 -17.914062 8.359375 -17.25 C 7.179688 -16.59375 6.257812 -15.648438 5.59375 -14.421875 C 4.9375 -13.203125 4.609375 -11.8125 4.609375 -10.25 C 4.609375 -8.664062 4.9375 -7.269531 5.59375 -6.0625 C 6.257812 -4.851562 7.179688 -3.914062 8.359375 -3.25 C 9.546875 -2.59375 10.878906 -2.265625 12.359375 -2.265625 C 13.585938 -2.265625 14.71875 -2.507812 15.75 -3 C 16.789062 -3.5 17.648438 -4.253906 18.328125 -5.265625 L 20.390625 -3.859375 C 19.585938 -2.535156 18.484375 -1.53125 17.078125 -0.84375 C 15.671875 -0.15625 14.097656 0.1875 12.359375 0.1875 Z M 12.359375 0.1875 "/></g></g></g><g fill="#292929" fill-opacity="1"><g transform="translate(1230.325169, 600.949917)"><g><path d="M 14.65625 -1.25 C 14.144531 -0.78125 13.503906 -0.421875 12.734375 -0.171875 C 11.960938 0.0664062 11.160156 0.1875 10.328125 0.1875 C 8.410156 0.1875 6.929688 -0.328125 5.890625 -1.359375 C 4.847656 -2.398438 4.328125 -3.867188 4.328125 -5.765625 L 4.328125 -18.171875 L 0.65625 -18.171875 L 0.65625 -20.515625 L 4.328125 -20.515625 L 4.328125 -25 L 7.09375 -25 L 7.09375 -20.515625 L 13.34375 -20.515625 L 13.34375 -18.171875 L 7.09375 -18.171875 L 7.09375 -5.921875 C 7.09375 -4.703125 7.398438 -3.773438 8.015625 -3.140625 C 8.628906 -2.503906 9.503906 -2.1875 10.640625 -2.1875 C 11.210938 -2.1875 11.765625 -2.273438 12.296875 -2.453125 C 12.835938 -2.640625 13.300781 -2.898438 13.6875 -3.234375 Z M 14.65625 -1.25 "/></g></g></g><g fill="#292929" fill-opacity="1"><g transform="translate(1246.159179, 600.949917)"><g/></g></g><g fill="#292929" fill-opacity="1"><g transform="translate(1256.377184, 600.949917)"><g><path d="M 0 -11.578125 L 39 -11.578125 L 39 -9.59375 L 0 -9.59375 Z M 0 -11.578125 "/></g></g></g></svg>